<?xml version="1.0" encoding="UTF-8" standalone="no"?>
<!-- Created with Inkscape (http://www.inkscape.org/) -->
<svg xmlns:rdf="http://www.w3.org/1999/02/22-rdf-syntax-ns#" style="shape-rendering:crispEdges" xmlns="http://www.w3.org/2000/svg" height="12.418mm" width="12.418mm" version="1.1" xmlns:cc="http://creativecommons.org/ns#" xmlns:dc="http://purl.org/dc/elements/1.1/" viewBox="0 0 44.000004 43.999997">
 <metadata>
  <rdf:RDF>
   <cc:Work rdf:about="">
    <dc:format>image/svg+xml</dc:format>
    <dc:type rdf:resource="http://purl.org/dc/dcmitype/StillImage"/>
    <dc:title/>
   </cc:Work>
  </rdf:RDF>
 </metadata>
 <g transform="translate(-204.67 -397.97)">
  <g transform="translate(230 -195)">
   <path fill="#fff" d="m-25.325 614.97v-22h22 22v22 22h-22-22v-22z"/>
   <path fill="#e7e7e7" d="m-24.125 635.77-1.2-1.2v-19.6-19.6l1.2-1.2 1.2-1.2h19.6 19.6l1.2 1.2 1.2 1.2v19.6 19.6l-1.2 1.2-1.2 1.2h-19.6-19.6l-1.2-1.2z"/>
   <path fill="#c8c8c8" d="m-24.125 635.77-1.2-1.2v-19.6-19.6l1.2-1.2 1.2-1.2h19.6 19.6l1.2 1.2 1.2 1.2v19.6 19.6l-1.2 1.2-1.2 1.2h-19.6-19.6l-1.2-1.2zm35.345-16.255 2.4545-2.4546v-2.1224-2.1224l-3.0252-3.0252-3.0252-3.0252-2.7248 0.64473-2.7248 0.64473-1.75 2.0682-1.75 2.0681v2.8892 2.8892l2 2 2 2h3.0455 3.0455l2.4545-2.4545z"/>
   <path fill="#afafaf" d="m-23.754 635.4-1.5714-1.5714v-18.857-18.857l1.5714-1.5714 1.5714-1.5714h18.857 18.857l1.5714 1.5714 1.5714 1.5714v18.857 18.857l-1.5714 1.5714-1.5714 1.5714h-18.857-18.857l-1.5714-1.5714zm35.356-16.063 2.0726-2.6348v-2.2544-2.2544l-1.75-2.1078-1.75-2.1078-3.0158-0.58117-3.0158-0.58117-2.7342 2.1507-2.7342 2.1507v3.4274 3.4274l2 2 2 2h3.4274 3.4274l2.0726-2.6349z"/>
   <path fill="#8a8a8a" d="m-23.754 635.4-1.5714-1.5714v-18.857-18.857l1.5714-1.5714 1.5714-1.5714h18.857 18.857l1.5714 1.5714 1.5714 1.5714v18.857 18.857l-1.5714 1.5714-1.5714 1.5714h-18.857-18.857l-1.5714-1.5714zm35.453-16.186 1.9759-2.5119v-2.4106-2.4106l-2.4545-2.4545-2.4545-2.4546h-2.4106-2.4106l-2.6349 2.0726-2.6349 2.0726v3.7724 3.7724l1.75 1.5518c2.0159 1.7875 4.9709 2.5483 7.5241 1.9371l1.7741-0.42472 1.9759-2.5119z"/>
   <path fill="#737373" d="m-23.67 635.14-1.655-1.8287v-18.516-18.516l1.8287-1.655 1.8287-1.655h18.516 18.516l1.655 1.8287 1.655 1.8287v18.516 18.516l-1.8287 1.655-1.8287 1.655h-18.516-18.516l-1.655-1.8287zm33.273-13.634 2.8292-1.463 0.62118-1.6188c0.34165-0.89032 0.62118-2.7274 0.62118-4.0824v-2.4637l-2.4545-2.4545-2.4545-2.4546h-2.8569-2.8569l-2.1104 1.9662c-1.1607 1.0814-2.3986 2.8742-2.7508 3.9839l-0.6404 2.0177 1.3123 2.7368 1.3123 2.7368 2.5 1.2645c3.1742 1.6055 3.5128 1.5973 6.9285-0.16901zm-17.243-1.7113 2.3145-2.1743v-2.7149-2.7149l-1.8712-2.3108-1.8712-2.3108h-3.7577-3.7577l-1.8712 2.3108-1.8712 2.3108v2.2544 2.2544l2.0726 2.6348 2.0726 2.6349h3.113 3.113l2.3145-2.1743z"/>
   <path fill="#4d4d4d" d="m-23.67 635.14-1.655-1.8287v-18.516-18.516l1.8287-1.655 1.8287-1.655h18.516 18.516l1.655 1.8287 1.655 1.8287v18.516 18.516l-1.8287 1.655-1.8287 1.655h-18.516-18.516l-1.655-1.8287zm17.366-16.211 0.97889-1.8291v-2.9932-2.9932l-2.6349-2.0726-2.6349-2.0726h-2.4106-2.4106l-2.4545 2.4546-2.4545 2.4545v2.4637c0 1.355 0.29235 3.2255 0.64966 4.1567l0.64966 1.693 3.0302 1.2741 3.0302 1.2741 2.8413-0.99048 2.8413-0.99047 0.97889-1.8291zm15.907 2.5764 2.8292-1.463 0.62118-1.6188c0.34165-0.89032 0.62118-2.7274 0.62118-4.0824v-2.4637l-2.4545-2.4545-2.4545-2.4546h-2.4637c-1.355 0-3.1921 0.27953-4.0824 0.62118l-1.6188 0.62118-1.463 2.8292c-0.80466 1.556-1.463 3.5611-1.463 4.4558v1.6266l2.9231 2.9231 2.9231 2.9231h1.6266c0.89462 0 2.8997-0.65835 4.4557-1.463z"/>
   <path fill="#2e2e2e" d="m-23.103 635.42-2.2225-1.5567v-18.887-18.887l2.2225-1.5567 2.2225-1.5567h17.777 17.777l2 2 2 2v18 18l-2 2-2 2h-17.777-17.777l-2.2225-1.5567zm15.282-14.693 2.6156-2.25 0.092983-3.2729 0.092982-3.2729-2.3271-2.4771-2.3271-2.4771h-3.0112-3.0112l-2.3145 2.1743-2.3145 2.1743v3.3711 3.3711l2.4545 2.4546 2.4545 2.4545h2.4897 2.4897l2.6156-2.25zm19.041-0.20454 2.4545-2.4546v-3.231-3.231l-2.1743-2.3144-2.1743-2.3144h-3.3711-3.3711l-2.4545 2.4546-2.4545 2.4545v1.9984c0 1.0991 0.50134 3.0987 1.1141 4.4436l1.1141 2.4451 2.1359 1.0342c1.1748 0.56883 3.1689 1.0647 4.4314 1.1019l2.2955 0.0677 2.4545-2.4545z"/>
   <path d="m-21.325 636.31c-0.825-0.31231-2.0625-1.2771-2.75-2.1439l-1.25-1.5761v-17.618-17.618l1.4194-1.9411 1.4194-1.9411h19.161 19.161l1.4194 1.9411 1.4194 1.9411v17.618 17.618l-1.4175 1.9411-1.4175 1.9411-17.833 0.20281-17.833 0.2028-1.5-0.56784zm14.194-16.378 3.0401-3.0401-0.62-3.2099-0.62-3.2099-2.1078-1.75-2.1078-1.75h-2.8074c-1.5441 0-3.5359 0.27953-4.4262 0.62118l-1.6188 0.62118-1.463 2.8292c-0.80466 1.556-1.463 3.5611-1.463 4.4558v1.6266l2.9231 2.9231 2.9231 2.9231h2.6538 2.6538l3.0401-3.0401zm18.195 0.79006 2.5008-2.25 0.17008-2c0.09355-1.1 0.11826-2.7875 0.05493-3.75l-0.11516-1.75-2-2-2-2h-3.9274-3.9274l-2.0726 2.6349-2.0726 2.6349v2.9106 2.9106l2.4545 2.4546 2.4545 2.4545h2.9897 2.9897l2.5008-2.25z"/>
  </g>
 </g>
</svg>
